<?xml version="1.0" encoding="UTF-8" standalone="no"?>
<!-- Created with Inkscape (http://www.inkscape.org/) -->

<svg
   xmlns:osb="http://www.openswatchbook.org/uri/2009/osb"
   xmlns:dc="http://purl.org/dc/elements/1.1/"
   xmlns:cc="http://creativecommons.org/ns#"
   xmlns:rdf="http://www.w3.org/1999/02/22-rdf-syntax-ns#"
   xmlns:svg="http://www.w3.org/2000/svg"
   xmlns="http://www.w3.org/2000/svg"
   xmlns:sodipodi="http://sodipodi.sourceforge.net/DTD/sodipodi-0.dtd"
   xmlns:inkscape="http://www.inkscape.org/namespaces/inkscape"
   width="600"
   height="600"
   viewBox="0 0 600.00001 599.99999"
   version="1.1"
   id="svg8"
   inkscape:version="0.92.2 5c3e80d, 2017-08-06"
   sodipodi:docname="banana.svg">
  <defs
     id="defs2">
    <linearGradient
       osb:paint="solid"
       id="linearGradient5606">
      <stop
         style="stop-color:#000000;stop-opacity:1;"
         offset="0"
         id="stop5608" />
    </linearGradient>
    <linearGradient
       osb:paint="solid"
       id="linearGradient6882">
      <stop
         style="stop-color:#555555;stop-opacity:1;"
         offset="0"
         id="stop6884" />
    </linearGradient>
  </defs>
  <sodipodi:namedview
     id="base"
     pagecolor="#ffffff"
     bordercolor="#666666"
     borderopacity="1.0"
     inkscape:pageopacity="0.0"
     inkscape:pageshadow="2"
     inkscape:zoom="0.70397502"
     inkscape:cx="157.98805"
     inkscape:cy="385.60692"
     inkscape:document-units="px"
     inkscape:current-layer="layer1"
     showgrid="false"
     inkscape:window-width="1894"
     inkscape:window-height="1032"
     inkscape:window-x="12"
     inkscape:window-y="34"
     inkscape:window-maximized="0"
     showborder="true"
     units="mm"
     inkscape:pagecheckerboard="true"
     inkscape:snap-bbox="true"
     borderlayer="true" />
  <metadata
     id="metadata5">
    <rdf:RDF>
      <cc:Work
         rdf:about="">
        <dc:format>image/svg+xml</dc:format>
        <dc:type
           rdf:resource="http://purl.org/dc/dcmitype/StillImage" />
        <dc:title></dc:title>
      </cc:Work>
    </rdf:RDF>
  </metadata>
  <g
     inkscape:label="Layer 1"
     inkscape:groupmode="layer"
     id="layer1"
     transform="translate(0,-522.51967)">
    <path
       style="opacity:1;fill:#5c3b01;fill-opacity:1;fill-rule:nonzero;stroke:none;stroke-width:12;stroke-linecap:butt;stroke-linejoin:miter;stroke-miterlimit:4;stroke-dasharray:none;stroke-dashoffset:0;stroke-opacity:1;paint-order:normal"
       d="m 357.63702,523.07286 c -3.16348,-0.31121 -6.41421,0.9084 -8.6023,3.55171 l -28.54809,34.48745 c -3.50093,4.22932 -2.91435,10.45307 1.31499,13.95402 l 62.68746,51.89211 c 0.57674,0.47743 1.19298,0.87103 1.83192,1.19756 l 41.30434,-48.78787 c -0.52695,-0.79315 -1.17597,-1.52611 -1.94915,-2.16612 l -62.68746,-51.89213 c -1.58599,-1.31285 -3.45362,-2.05 -5.35171,-2.23673 z"
       id="rect87574"
       inkscape:connector-curvature="0" />
    <path
       inkscape:connector-curvature="0"
       id="path87579"
       d="m 61.610475,1008.2476 c -2.807883,1.142 -5.009692,3.6145 -5.682603,6.8167 l -8.779477,41.78 c -1.076659,5.1235 2.181745,10.1153 7.305381,11.1919 l 75.942954,15.9591 c 0.69869,0.1469 1.39361,0.2044 2.07778,0.1965 l 13.19519,-59.5119 c -0.79685,-0.4354 -1.67002,-0.7658 -2.60667,-0.9627 l -75.942988,-15.9586 c -1.921355,-0.4038 -3.82476,-0.1967 -5.509501,0.4885 z"
       style="opacity:1;fill:#5c3b01;fill-opacity:1;fill-rule:nonzero;stroke:none;stroke-width:12;stroke-linecap:butt;stroke-linejoin:miter;stroke-miterlimit:4;stroke-dasharray:none;stroke-dashoffset:0;stroke-opacity:1;paint-order:normal" />
    <path
       style="opacity:1;fill:#edbe00;fill-opacity:1;stroke:none;stroke-width:1px;stroke-linecap:butt;stroke-linejoin:miter;stroke-opacity:1"
       d="m 386.321,628.15572 c 68.03445,202.34875 -87.55324,377.46948 -240.65126,396.52388 -2.12267,0.921 -6.82335,31.434 -6.82335,31.434 230.7733,68.5469 435.04481,-280.07339 268.00787,-451.45013 0.51394,0.4451 -20.53326,23.49225 -20.53326,23.49225 z"
       id="path87581"
       inkscape:connector-curvature="0"
       sodipodi:nodetypes="ccccc" />
    <path
       style="opacity:1;fill:#ffcc00;stroke:none;stroke-width:1px;stroke-linecap:butt;stroke-linejoin:miter;stroke-opacity:1"
       d="m 427.62534,579.36784 c 0,0 -17.72292,20.12223 -20.77094,25.29477 167.03695,171.37673 -37.23421,519.99699 -268.00752,451.45019 0,0 -5.68024,25.7036 -6.3715,28.0785 381.0302,154.5115 569.95223,-341.95789 295.14996,-504.82346 z"
       id="path87583"
       inkscape:connector-curvature="0" />
  </g>
</svg>
