<?xml version="1.0" encoding="UTF-8" standalone="no"?>
<!-- Created with Inkscape (http://www.inkscape.org/) -->

<svg
   xmlns:dc="http://purl.org/dc/elements/1.1/"
   xmlns:cc="http://creativecommons.org/ns#"
   xmlns:rdf="http://www.w3.org/1999/02/22-rdf-syntax-ns#"
   xmlns:svg="http://www.w3.org/2000/svg"
   xmlns="http://www.w3.org/2000/svg"
   xmlns:sodipodi="http://sodipodi.sourceforge.net/DTD/sodipodi-0.dtd"
   xmlns:inkscape="http://www.inkscape.org/namespaces/inkscape"
   width="600"
   height="600"
   viewBox="0 0 600.00001 599.99999"
   version="1.1"
   id="svg8"
   inkscape:version="0.92.2 5c3e80d, 2017-08-06"
   sodipodi:docname="blueberries.svg">
  <defs
     id="defs2" />
  <sodipodi:namedview
     id="base"
     pagecolor="#ffffff"
     bordercolor="#666666"
     borderopacity="1.0"
     inkscape:pageopacity="0.0"
     inkscape:pageshadow="2"
     inkscape:zoom="0.53230625"
     inkscape:cx="513.42788"
     inkscape:cy="432.03844"
     inkscape:document-units="px"
     inkscape:current-layer="layer1"
     showgrid="false"
     inkscape:window-width="1894"
     inkscape:window-height="1032"
     inkscape:window-x="12"
     inkscape:window-y="34"
     inkscape:window-maximized="0"
     showborder="true"
     units="px"
     inkscape:pagecheckerboard="true"
     borderlayer="true"
     inkscape:object-paths="true" />
  <metadata
     id="metadata5">
    <rdf:RDF>
      <cc:Work
         rdf:about="">
        <dc:format>image/svg+xml</dc:format>
        <dc:type
           rdf:resource="http://purl.org/dc/dcmitype/StillImage" />
        <dc:title></dc:title>
      </cc:Work>
    </rdf:RDF>
  </metadata>
  <g
     inkscape:label="Layer 1"
     inkscape:groupmode="layer"
     id="layer1"
     transform="translate(0,-522.51967)">
    <path
       style="opacity:1;fill:#3a4da1;fill-opacity:1;fill-rule:nonzero;stroke:none;stroke-width:34.09999847;stroke-linecap:butt;stroke-linejoin:miter;stroke-miterlimit:4;stroke-dasharray:none;stroke-dashoffset:0;stroke-opacity:1;paint-order:normal"
       d="m 186.9019,758.53128 c -5.16892,32.73426 -27.24333,76.77972 -66.913,82.5307 -10.2658,1.48825 -20.926527,0.61712 -31.050677,-2.16843 -10.124165,-2.78555 -19.711758,-7.48551 -27.831299,-13.65489 -8.119542,-6.16939 -20.286696,-18.15873 -22.170855,-21.42219 -1.938954,-3.35836 -2.95649,-19.40029 -1.477876,-29.66748 5.417618,-37.61886 25.65534,-78.21422 66.912997,-82.53072 41.26727,-4.31723 89.00243,25.92834 82.53071,66.91301 z"
       id="path2915"
       inkscape:connector-curvature="0"
       sodipodi:nodetypes="ssssssss" />
    <path
       style="opacity:1;fill:#3a4da1;fill-opacity:1;fill-rule:nonzero;stroke:none;stroke-width:34.09999847;stroke-linecap:butt;stroke-linejoin:miter;stroke-miterlimit:4;stroke-dasharray:none;stroke-dashoffset:0;stroke-opacity:1;paint-order:normal"
       d="m 382.72799,657.56201 c 6.02438,43.07376 -26.88173,81.98921 -70.13917,86.50986 -43.25743,4.52065 -81.98922,-26.88172 -86.50986,-70.13915 -1.13016,-10.81436 -0.003,-22.01283 2.99736,-32.63135 2.99989,-10.61851 8.10943,-19.28152 14.45912,-27.78301 6.33905,-8.48723 21.77295,-23.84244 25.66078,-24.67787 8.59521,-1.84695 18.42718,3.26675 29.30296,3.14448 10.4976,-0.11801 18.63754,-1.21155 27.4964,-1.07221 4.95091,0.0779 19.10373,13.39364 26.99312,19.38985 7.8894,5.99621 14.65249,13.00823 19.7791,20.92262 5.1266,7.91439 8.61673,16.73113 9.96019,26.33678 z"
       id="path2917"
       inkscape:connector-curvature="0"
       sodipodi:nodetypes="sssssssssss" />
    <path
       style="opacity:1;fill:#3a4da1;fill-opacity:1;fill-rule:nonzero;stroke:none;stroke-width:34.09999847;stroke-linecap:butt;stroke-linejoin:miter;stroke-miterlimit:4;stroke-dasharray:none;stroke-dashoffset:0;stroke-opacity:1;paint-order:normal"
       d="m 209.30106,1005.4809 c 5.17823,49.5494 -39.8933,93.3082 -89.44275,98.4863 -49.549444,5.1782 -90.881117,-20.4767 -96.059289,-70.0262 -5.178197,-49.54938 37.681714,-98.42737 86.408909,-108.80137 47.12236,-10.03235 93.91494,30.79179 99.09313,80.34127 z"
       id="path2919"
       inkscape:connector-curvature="0"
       sodipodi:nodetypes="sssss" />
    <path
       style="opacity:1;fill:#3a4da1;fill-opacity:1;fill-rule:nonzero;stroke:none;stroke-width:34.09999847;stroke-linecap:butt;stroke-linejoin:miter;stroke-miterlimit:4;stroke-dasharray:none;stroke-dashoffset:0;stroke-opacity:1;paint-order:normal"
       d="m 356.2546,859.41414 c 0.97742,11.07107 9.32747,25.83136 1.40527,33.75357 -4.97354,4.97353 -8.0326,20.92364 -14.4789,29.53223 -6.44629,8.6086 -14.3946,15.67178 -23.49102,20.25974 -9.09643,4.58796 -19.34097,6.70071 -30.37971,5.40844 -40.07688,-4.69165 -81.60223,-32.43476 -88.42636,-71.69299 -7.61356,-43.79973 31.39987,-76.92443 75.28362,-84.0378 12.31559,-1.9963 23.52915,-1.57963 33.48359,0.86622 9.95444,2.44585 18.64976,6.92088 25.92886,13.0413 7.2791,6.12042 18.32336,20.6296 20.16885,23.82607 4.99737,8.6557 -0.48006,17.87639 0.5058,29.04322 z"
       id="path2923"
       inkscape:connector-curvature="0"
       sodipodi:nodetypes="sssssssssss" />
    <path
       style="opacity:1;fill:#3a4da1;fill-opacity:1;fill-rule:nonzero;stroke:none;stroke-width:34.09999847;stroke-linecap:butt;stroke-linejoin:miter;stroke-miterlimit:4;stroke-dasharray:none;stroke-dashoffset:0;stroke-opacity:1;paint-order:normal"
       d="m 586.94205,719.7194 c 5.37046,51.38916 -31.93507,97.40193 -83.32424,102.77239 -51.38917,5.37046 -97.40524,-31.93473 -102.77239,-83.32424 -5.36641,-51.38322 49.40569,-102.06072 92.82148,-94.3304 49.62152,8.83526 87.9047,23.49308 93.27515,74.88225 z"
       id="path2925"
       inkscape:connector-curvature="0"
       sodipodi:nodetypes="sssss" />
  </g>
</svg>
