<?xml version="1.0" encoding="UTF-8" standalone="no"?>
<!-- Created with Inkscape (http://www.inkscape.org/) -->

<svg
   xmlns:dc="http://purl.org/dc/elements/1.1/"
   xmlns:cc="http://creativecommons.org/ns#"
   xmlns:rdf="http://www.w3.org/1999/02/22-rdf-syntax-ns#"
   xmlns:svg="http://www.w3.org/2000/svg"
   xmlns="http://www.w3.org/2000/svg"
   xmlns:sodipodi="http://sodipodi.sourceforge.net/DTD/sodipodi-0.dtd"
   xmlns:inkscape="http://www.inkscape.org/namespaces/inkscape"
   width="600"
   height="600"
   viewBox="0 0 600.00001 599.99999"
   version="1.1"
   id="svg8"
   inkscape:version="0.92.2 5c3e80d, 2017-08-06"
   sodipodi:docname="eggs.svg">
  <defs
     id="defs2" />
  <sodipodi:namedview
     id="base"
     pagecolor="#ffffff"
     bordercolor="#666666"
     borderopacity="1.0"
     inkscape:pageopacity="0.0"
     inkscape:pageshadow="2"
     inkscape:zoom="0.61215219"
     inkscape:cx="401.93184"
     inkscape:cy="221.77034"
     inkscape:document-units="px"
     inkscape:current-layer="layer1"
     showgrid="false"
     inkscape:window-width="1894"
     inkscape:window-height="1032"
     inkscape:window-x="12"
     inkscape:window-y="34"
     inkscape:window-maximized="0"
     showborder="true"
     units="px"
     inkscape:pagecheckerboard="true"
     borderlayer="true" />
  <metadata
     id="metadata5">
    <rdf:RDF>
      <cc:Work
         rdf:about="">
        <dc:format>image/svg+xml</dc:format>
        <dc:type
           rdf:resource="http://purl.org/dc/dcmitype/StillImage" />
        <dc:title></dc:title>
      </cc:Work>
    </rdf:RDF>
  </metadata>
  <g
     inkscape:label="Layer 1"
     inkscape:groupmode="layer"
     id="layer1"
     transform="translate(0,-522.51967)">
    <path
       style="opacity:1;fill:#f9f9f9;fill-opacity:1;fill-rule:nonzero;stroke:none;stroke-width:34.09999847;stroke-linecap:butt;stroke-linejoin:miter;stroke-miterlimit:4;stroke-dasharray:none;stroke-dashoffset:0;stroke-opacity:1;paint-order:normal"
       d="M 421.89005,19.01306 C 383.15492,-12.303959 306.97153,-3.2881215 276.96318,55.911547 c -19.0667,37.614258 -18.45719,69.593643 -18.43193,115.096263 0.005,8.71796 0.75152,17.41971 2.1582,26.02344 -18.61124,-5.92821 -60.57421,-40.75165 -81.70522,-20.34256 -21.13101,20.40909 -35.89877,52.03844 -100.464423,50.87021 -52.119291,-0.94303 -92.498577,80.03751 -65.734651,150.84149 38.474488,42.24335 39.974647,54.93001 38.461454,139.03932 30.597911,58.95803 98.25773,18.23502 137.06354,40.19134 40.718,23.03824 113.13138,20.51473 130.94371,-20.05042 20.57739,-46.86219 16.09444,-107.75287 74.22661,-159.18024 11.79624,-10.4357 -2.06844,-31.43137 -5.98828,-46.68555 11.75466,2.66263 32.37813,3.74831 42.31579,10.56775 53.68065,36.83685 70.8997,-10.17379 100.2725,-62.88106 19.16432,-34.3889 36.40494,-32.40403 40.9633,-106.97322 4.00675,-65.5455 32.54546,-124.230451 -14.17041,-120.778274 -40.59749,3.000045 -91.93776,2.165006 -134.98332,-32.636976 z"
       transform="translate(0,522.51967)"
       id="path2780"
       inkscape:connector-curvature="0"
       sodipodi:nodetypes="sssczsccssscsssss" />
    <circle
       style="opacity:1;fill:#ffc138;fill-opacity:1;fill-rule:nonzero;stroke:none;stroke-width:34.09999847;stroke-linecap:butt;stroke-linejoin:miter;stroke-miterlimit:4;stroke-dasharray:none;stroke-dashoffset:0;stroke-opacity:1;paint-order:normal"
       id="path2785"
       cx="200.2912"
       cy="888.13635"
       r="83.809792" />
    <circle
       r="71.025246"
       cy="696.36816"
       cx="423.31049"
       id="circle2787"
       style="opacity:1;fill:#ffc138;fill-opacity:1;fill-rule:nonzero;stroke:none;stroke-width:34.09999847;stroke-linecap:butt;stroke-linejoin:miter;stroke-miterlimit:4;stroke-dasharray:none;stroke-dashoffset:0;stroke-opacity:1;paint-order:normal" />
  </g>
</svg>
