<?xml version="1.0" encoding="UTF-8" standalone="no"?>
<!-- Created with Inkscape (http://www.inkscape.org/) -->

<svg
   xmlns:dc="http://purl.org/dc/elements/1.1/"
   xmlns:cc="http://creativecommons.org/ns#"
   xmlns:rdf="http://www.w3.org/1999/02/22-rdf-syntax-ns#"
   xmlns:svg="http://www.w3.org/2000/svg"
   xmlns="http://www.w3.org/2000/svg"
   xmlns:sodipodi="http://sodipodi.sourceforge.net/DTD/sodipodi-0.dtd"
   xmlns:inkscape="http://www.inkscape.org/namespaces/inkscape"
   width="600"
   height="600"
   viewBox="0 0 600.00001 599.99999"
   version="1.1"
   id="svg8"
   inkscape:version="0.92.2 5c3e80d, 2017-08-06"
   sodipodi:docname="pear.svg">
  <defs
     id="defs2" />
  <sodipodi:namedview
     id="base"
     pagecolor="#ffffff"
     bordercolor="#666666"
     borderopacity="1.0"
     inkscape:pageopacity="0.0"
     inkscape:pageshadow="2"
     inkscape:zoom="0.61215219"
     inkscape:cx="391.86508"
     inkscape:cy="276.53387"
     inkscape:document-units="px"
     inkscape:current-layer="layer1"
     showgrid="false"
     inkscape:window-width="1894"
     inkscape:window-height="1032"
     inkscape:window-x="12"
     inkscape:window-y="34"
     inkscape:window-maximized="0"
     showborder="true"
     units="px"
     inkscape:pagecheckerboard="true"
     borderlayer="true" />
  <metadata
     id="metadata5">
    <rdf:RDF>
      <cc:Work
         rdf:about="">
        <dc:format>image/svg+xml</dc:format>
        <dc:type
           rdf:resource="http://purl.org/dc/dcmitype/StillImage" />
        <dc:title></dc:title>
      </cc:Work>
    </rdf:RDF>
  </metadata>
  <g
     inkscape:label="Layer 1"
     inkscape:groupmode="layer"
     id="layer1"
     transform="translate(0,-522.51967)">
    <path
       style="opacity:1;fill:#a0c64c;fill-opacity:1;stroke:none;stroke-width:1px;stroke-linecap:butt;stroke-linejoin:miter;stroke-opacity:1"
       d="m 396.01815,739.57759 c 32.69018,100.87255 72.85239,150.37482 57.90831,248.44535 -14.94408,98.07056 -84.06045,130.76066 -159.71486,130.76066 -75.65441,0 -166.94816,-45.8856 -170.68418,-133.68205 -3.73602,-87.79648 73.54765,-180.1436 83.8217,-215.6358 10.27406,-35.49219 -9.34005,-98.07053 62.57834,-141.96877 71.91839,-43.89823 122.35467,84.06046 126.09069,112.08061 z"
       id="path1764"
       inkscape:connector-curvature="0"
       sodipodi:nodetypes="csssssc" />
    <path
       style="opacity:1;fill:#a7ce53;fill-opacity:1;stroke:none;stroke-width:1px;stroke-linecap:butt;stroke-linejoin:miter;stroke-opacity:1"
       d="m 316.52519,1091.1211 c 73.45622,-17.6153 86.51596,-50.6089 98.35138,-71.1085 10.61028,-18.3775 20.82156,-2.729 14.31405,8.5423 -17.05369,29.5379 -61.44046,79.189 -108.27886,79.189 -20.51902,0 -18.34395,-13.2757 -4.38657,-16.6228 z"
       id="path1766"
       inkscape:connector-curvature="0"
       sodipodi:nodetypes="sssss" />
    <path
       style="opacity:1;fill:#a7ce53;fill-opacity:1;stroke:none;stroke-width:1px;stroke-linecap:butt;stroke-linejoin:miter;stroke-opacity:1"
       d="m 392.6517,803.75733 c 0,-25.34958 -29.61681,-120.2992 -40.60862,-130.37502 -10.9918,-10.07582 -14.35041,-5.4959 -11.90778,9.46517 2.44262,14.96106 38.47131,84.57583 39.99795,123.04714 0.47292,11.91768 12.51845,3.84528 12.51845,-2.13729 z"
       id="path1768"
       inkscape:connector-curvature="0"
       sodipodi:nodetypes="sssss" />
    <circle
       style="opacity:1;fill:#93b940;fill-opacity:1;fill-rule:nonzero;stroke:none;stroke-width:34.09999847;stroke-linecap:butt;stroke-linejoin:miter;stroke-miterlimit:4;stroke-dasharray:none;stroke-dashoffset:0;stroke-opacity:1;paint-order:normal"
       id="path1774"
       cx="434.73154"
       cy="944.51752"
       r="4.6174355" />
    <circle
       r="4.6174355"
       cy="917.49677"
       cx="447.33109"
       id="circle1776"
       style="opacity:1;fill:#93b940;fill-opacity:1;fill-rule:nonzero;stroke:none;stroke-width:34.09999847;stroke-linecap:butt;stroke-linejoin:miter;stroke-miterlimit:4;stroke-dasharray:none;stroke-dashoffset:0;stroke-opacity:1;paint-order:normal" />
    <circle
       style="opacity:1;fill:#93b940;fill-opacity:1;fill-rule:nonzero;stroke:none;stroke-width:34.09999847;stroke-linecap:butt;stroke-linejoin:miter;stroke-miterlimit:4;stroke-dasharray:none;stroke-dashoffset:0;stroke-opacity:1;paint-order:normal"
       id="circle1778"
       cx="427.29324"
       cy="907.47784"
       r="4.6174355" />
    <circle
       r="4.6174355"
       cy="884.10034"
       cx="436.55316"
       id="circle1780"
       style="opacity:1;fill:#93b940;fill-opacity:1;fill-rule:nonzero;stroke:none;stroke-width:34.09999847;stroke-linecap:butt;stroke-linejoin:miter;stroke-miterlimit:4;stroke-dasharray:none;stroke-dashoffset:0;stroke-opacity:1;paint-order:normal" />
    <circle
       style="opacity:1;fill:#93b940;fill-opacity:1;fill-rule:nonzero;stroke:none;stroke-width:34.09999847;stroke-linecap:butt;stroke-linejoin:miter;stroke-miterlimit:4;stroke-dasharray:none;stroke-dashoffset:0;stroke-opacity:1;paint-order:normal"
       id="circle1782"
       cx="412.11304"
       cy="873.32239"
       r="4.6174355" />
    <circle
       r="4.6174355"
       cy="1097.6926"
       cx="268.15094"
       id="circle1784"
       style="opacity:1;fill:#93b940;fill-opacity:1;fill-rule:nonzero;stroke:none;stroke-width:34.09999847;stroke-linecap:butt;stroke-linejoin:miter;stroke-miterlimit:4;stroke-dasharray:none;stroke-dashoffset:0;stroke-opacity:1;paint-order:normal" />
    <circle
       style="opacity:1;fill:#93b940;fill-opacity:1;fill-rule:nonzero;stroke:none;stroke-width:34.09999847;stroke-linecap:butt;stroke-linejoin:miter;stroke-miterlimit:4;stroke-dasharray:none;stroke-dashoffset:0;stroke-opacity:1;paint-order:normal"
       id="circle1786"
       cx="237.60287"
       cy="1086.1055"
       r="4.6174355" />
    <circle
       r="4.6174355"
       cy="1081.892"
       cx="215.48187"
       id="circle1788"
       style="opacity:1;fill:#93b940;fill-opacity:1;fill-rule:nonzero;stroke:none;stroke-width:34.09999847;stroke-linecap:butt;stroke-linejoin:miter;stroke-miterlimit:4;stroke-dasharray:none;stroke-dashoffset:0;stroke-opacity:1;paint-order:normal" />
    <circle
       style="opacity:1;fill:#93b940;fill-opacity:1;fill-rule:nonzero;stroke:none;stroke-width:34.09999847;stroke-linecap:butt;stroke-linejoin:miter;stroke-miterlimit:4;stroke-dasharray:none;stroke-dashoffset:0;stroke-opacity:1;paint-order:normal"
       id="circle1790"
       cx="212.32173"
       cy="1065.0378"
       r="4.6174355" />
    <circle
       r="4.6174355"
       cy="1071.3582"
       cx="189.49847"
       id="circle1792"
       style="opacity:1;fill:#93b940;fill-opacity:1;fill-rule:nonzero;stroke:none;stroke-width:34.09999847;stroke-linecap:butt;stroke-linejoin:miter;stroke-miterlimit:4;stroke-dasharray:none;stroke-dashoffset:0;stroke-opacity:1;paint-order:normal" />
    <circle
       style="opacity:1;fill:#93b940;fill-opacity:1;fill-rule:nonzero;stroke:none;stroke-width:34.09999847;stroke-linecap:butt;stroke-linejoin:miter;stroke-miterlimit:4;stroke-dasharray:none;stroke-dashoffset:0;stroke-opacity:1;paint-order:normal"
       id="circle1794"
       cx="177.56015"
       cy="1055.5575"
       r="4.6174355" />
    <circle
       r="4.6174355"
       cy="678.28882"
       cx="297.41473"
       id="circle1796"
       style="opacity:1;fill:#93b940;fill-opacity:1;fill-rule:nonzero;stroke:none;stroke-width:34.09999847;stroke-linecap:butt;stroke-linejoin:miter;stroke-miterlimit:4;stroke-dasharray:none;stroke-dashoffset:0;stroke-opacity:1;paint-order:normal" />
    <circle
       style="opacity:1;fill:#93b940;fill-opacity:1;fill-rule:nonzero;stroke:none;stroke-width:34.09999847;stroke-linecap:butt;stroke-linejoin:miter;stroke-miterlimit:4;stroke-dasharray:none;stroke-dashoffset:0;stroke-opacity:1;paint-order:normal"
       id="circle1798"
       cx="314.1319"
       cy="675.03827"
       r="4.6174355" />
    <circle
       r="4.6174355"
       cy="654.6062"
       cx="315.52499"
       id="circle1800"
       style="opacity:1;fill:#93b940;fill-opacity:1;fill-rule:nonzero;stroke:none;stroke-width:34.09999847;stroke-linecap:butt;stroke-linejoin:miter;stroke-miterlimit:4;stroke-dasharray:none;stroke-dashoffset:0;stroke-opacity:1;paint-order:normal" />
    <circle
       style="opacity:1;fill:#93b940;fill-opacity:1;fill-rule:nonzero;stroke:none;stroke-width:34.09999847;stroke-linecap:butt;stroke-linejoin:miter;stroke-miterlimit:4;stroke-dasharray:none;stroke-dashoffset:0;stroke-opacity:1;paint-order:normal"
       id="circle1802"
       cx="341.06509"
       cy="656.46368"
       r="4.6174355" />
    <path
       style="opacity:1;fill:#99bf45;fill-opacity:1;stroke:none;stroke-width:1px;stroke-linecap:butt;stroke-linejoin:miter;stroke-opacity:1"
       d="m 147.43202,529.88547 c -10.20139,-18.51427 -16.05158,-40.48125 -17.13319,-65.89914 -3.73602,-87.79648 92.15759,-180.14257 102.43164,-215.63477 8.1353,-28.10376 -3.56915,-90.22209 27.04932,-136.72482 -60.28092,43.39253 -42.65319,101.54354 -52.43018,135.31857 -10.27405,35.4922 -87.55829,127.84024 -83.82227,215.63672 1.11605,26.22706 9.91281,48.66235 23.90468,67.30344 z"
       transform="translate(0,522.51967)"
       id="path1804"
       inkscape:connector-curvature="0"
       sodipodi:nodetypes="csscssc" />
    <ellipse
       style="opacity:1;fill:#99bf45;fill-opacity:1;fill-rule:nonzero;stroke:none;stroke-width:34.09999847;stroke-linecap:butt;stroke-linejoin:miter;stroke-miterlimit:4;stroke-dasharray:none;stroke-dashoffset:0;stroke-opacity:1;paint-order:normal"
       id="path1834"
       cx="-149.5183"
       cy="694.09967"
       rx="42.810638"
       ry="14.374375"
       transform="rotate(-34.074914)" />
    <path
       style="opacity:1;fill:#886c40;fill-opacity:1;stroke:none;stroke-width:1px;stroke-linecap:butt;stroke-linejoin:miter;stroke-opacity:1"
       d="m 301.05332,639.49091 c 1.07857,-6.27532 -1.72018,-49.92395 -3.96926,-58.31763 -2.38582,-8.90401 -5.80123,-39.08197 -8.85451,-43.05123 -3.05328,-3.96927 -21.98361,-3.36139 -21.98361,13.43442 0,4.22948 10.29283,37.25209 10.29283,43.00603 0,12.21312 0.69897,33.63128 1.30963,42.79112 0.61066,9.15983 16.18238,30.83812 23.20492,2.13729 z"
       id="path1770"
       inkscape:connector-curvature="0"
       sodipodi:nodetypes="cscsssc" />
    <path
       style="opacity:1;fill:#9f8255;fill-opacity:1;stroke:none;stroke-width:1px;stroke-linecap:butt;stroke-linejoin:miter;stroke-opacity:1"
       d="m 277.89224,553.30546 c 6.88704,-1.14784 13.20017,-7.2314 9.98621,-14.00366 -3.21395,-6.77226 -7.34618,-10.7897 -12.39668,-5.50963 -5.0505,5.28006 -9.29751,8.49402 -8.72359,12.85581 0.57392,4.3618 1.03306,7.00183 11.13406,6.65748 z"
       id="path1772"
       inkscape:connector-curvature="0" />
    <path
       style="opacity:1;fill:#559527;fill-opacity:1;stroke:none;stroke-width:1px;stroke-linecap:butt;stroke-linejoin:miter;stroke-opacity:1"
       d="m 292.76792,601.3331 c 36.59679,12.2804 105.89956,-11.19834 117.69966,-32.54087 8.15253,-14.74526 26.64514,-22.90465 -10.75065,-30.51057 -44.37092,-9.0246 -94.01815,6.41679 -104.94672,55.59535 -2.06208,9.27937 -2.00229,7.45609 -2.00229,7.45609 z"
       id="path1836"
       inkscape:connector-curvature="0"
       sodipodi:nodetypes="csssc" />
    <path
       style="opacity:1;fill:#48871b;fill-opacity:1;stroke:none;stroke-width:1px;stroke-linecap:butt;stroke-linejoin:miter;stroke-opacity:1"
       d="m 411.33594,27.988281 c -44.58678,0.62285 -89.53917,37.529046 -113.39844,52.275391 37.59127,8.704775 101.26383,-13.614679 112.5293,-33.990234 4.00797,-7.249111 10.50379,-12.905129 11.64062,-17.6875 -3.58068,-0.452794 -7.17466,-0.647902 -10.77148,-0.597657 z"
       transform="translate(0,522.51967)"
       id="path1838"
       inkscape:connector-curvature="0" />
  </g>
</svg>
