<?xml version="1.0" encoding="UTF-8" standalone="no"?>
<!-- Created with Inkscape (http://www.inkscape.org/) -->

<svg
   xmlns:osb="http://www.openswatchbook.org/uri/2009/osb"
   xmlns:dc="http://purl.org/dc/elements/1.1/"
   xmlns:cc="http://creativecommons.org/ns#"
   xmlns:rdf="http://www.w3.org/1999/02/22-rdf-syntax-ns#"
   xmlns:svg="http://www.w3.org/2000/svg"
   xmlns="http://www.w3.org/2000/svg"
   xmlns:sodipodi="http://sodipodi.sourceforge.net/DTD/sodipodi-0.dtd"
   xmlns:inkscape="http://www.inkscape.org/namespaces/inkscape"
   width="600"
   height="600"
   viewBox="0 0 600.00001 599.99999"
   version="1.1"
   id="svg8"
   inkscape:version="0.92.2 5c3e80d, 2017-08-06"
   sodipodi:docname="poo.svg">
  <defs
     id="defs2">
    <linearGradient
       osb:paint="solid"
       id="linearGradient5606">
      <stop
         style="stop-color:#000000;stop-opacity:1;"
         offset="0"
         id="stop5608" />
    </linearGradient>
    <linearGradient
       osb:paint="solid"
       id="linearGradient6882">
      <stop
         style="stop-color:#555555;stop-opacity:1;"
         offset="0"
         id="stop6884" />
    </linearGradient>
  </defs>
  <sodipodi:namedview
     id="base"
     pagecolor="#ffffff"
     bordercolor="#666666"
     borderopacity="1.0"
     inkscape:pageopacity="0.0"
     inkscape:pageshadow="2"
     inkscape:zoom="0.17401186"
     inkscape:cx="1292.8534"
     inkscape:cy="642.29495"
     inkscape:document-units="px"
     inkscape:current-layer="layer1"
     showgrid="false"
     inkscape:window-width="1894"
     inkscape:window-height="1032"
     inkscape:window-x="12"
     inkscape:window-y="34"
     inkscape:window-maximized="0"
     showborder="true"
     units="mm"
     inkscape:pagecheckerboard="true"
     inkscape:snap-bbox="true"
     borderlayer="true" />
  <metadata
     id="metadata5">
    <rdf:RDF>
      <cc:Work
         rdf:about="">
        <dc:format>image/svg+xml</dc:format>
        <dc:type
           rdf:resource="http://purl.org/dc/dcmitype/StillImage" />
        <dc:title></dc:title>
      </cc:Work>
    </rdf:RDF>
  </metadata>
  <g
     inkscape:label="Layer 1"
     inkscape:groupmode="layer"
     id="layer1"
     transform="translate(0,-522.51967)">
    <path
       style="opacity:1;fill:#85573a;fill-opacity:1;fill-rule:nonzero;stroke:none;stroke-width:12;stroke-linecap:butt;stroke-linejoin:miter;stroke-miterlimit:4;stroke-dasharray:none;stroke-dashoffset:0;stroke-opacity:1;paint-order:normal"
       d="M 299.25023,27.027445 C 169.84842,73.200367 158.77389,158.97615 159.17768,178.20943 c -0.45475,15.16137 -1.7461,46.84011 4.28912,59.34135 h -11.53516 c -42.4274,0 -76.583984,34.15659 -76.583984,76.58399 0,13.93591 3.703367,26.96729 10.15625,38.20117 -42.343253,17.87114 -71.916015,59.70468 -71.916015,108.70117 v 9.88281 c 0,65.3519 52.610998,117.96289 117.962889,117.96289 h 345.86328 c 65.3519,0 117.96289,-52.61099 117.96289,-117.96289 v -9.88281 c 0,-48.61368 -29.11626,-90.16944 -70.92968,-108.27149 6.60668,-11.33035 10.40429,-24.51703 10.40429,-38.63085 0,-42.4274 -34.15659,-76.58399 -76.58398,-76.58399 h -16.66211 c 3.776,-7.65347 5.9043,-16.27766 5.9043,-25.41992 v -19.38477 c 0,-31.75096 -39.19931,-58.26296 -69.06095,-62.11868 -28.67725,-3.70279 -138.97964,16.94845 -79.19859,-103.599965 z"
       transform="translate(0,522.51967)"
       id="rect87441"
       inkscape:connector-curvature="0"
       sodipodi:nodetypes="cccsscsssssscsscsssc" />
    <circle
       style="opacity:1;fill:#000000;fill-opacity:1;fill-rule:nonzero;stroke:none;stroke-width:12;stroke-linecap:butt;stroke-linejoin:miter;stroke-miterlimit:4;stroke-dasharray:none;stroke-dashoffset:0;stroke-opacity:1;paint-order:normal"
       id="path87453"
       cx="231.52455"
       cy="833.26752"
       r="31.934422" />
    <circle
       r="31.934422"
       cy="833.26752"
       cx="378.30008"
       id="circle87455"
       style="opacity:1;fill:#000000;fill-opacity:1;fill-rule:nonzero;stroke:none;stroke-width:12;stroke-linecap:butt;stroke-linejoin:miter;stroke-miterlimit:4;stroke-dasharray:none;stroke-dashoffset:0;stroke-opacity:1;paint-order:normal" />
    <path
       style="opacity:1;fill:#ffffff;fill-opacity:1;fill-rule:nonzero;stroke:none;stroke-width:12;stroke-linecap:butt;stroke-linejoin:miter;stroke-miterlimit:4;stroke-dasharray:none;stroke-dashoffset:0;stroke-opacity:1;paint-order:normal"
       d="M 156.68164,425.37109 A 147.38963,106.85749 0 0 0 303.99023,530.60352 147.38963,106.85749 0 0 0 451.25391,425.58984 H 161.4707 c -1.61546,0 -3.2096,-0.0842 -4.78906,-0.21875 z"
       transform="translate(0,522.51967)"
       id="path87457"
       inkscape:connector-curvature="0" />
  </g>
</svg>
